<svg xmlns="http://www.w3.org/2000/svg" viewBox="0 0 238.3 113">
  <defs>
    <style>
      .cls-1 {
        fill: #39607a;
      }

      .cls-2 {
        fill: #008fb4;
      }

      .cls-3 {
        fill: #fff;
      }
    </style>
  </defs>
  <title>E_NavyBackground</title>
  <g id="Layer_2" data-name="Layer 2">
    <g id="Layer_1-2" data-name="Layer 1">
      <g>
        <path class="cls-1" d="M4.6,38.3C1.5,38.3,0,36.8,0,33.7V29.2c0-3.1,1.5-4.6,4.6-4.6H59.7c3.1,0,4.6,1.5,4.6,4.6v4.5c0,3.1-1.5,4.6-4.6,4.6Z"/>
        <path class="cls-2" d="M115.4,113c-3.1,0-4.7-1.6-4.7-4.6v-4.5c0-3.1,1.6-4.6,4.7-4.6h12.7c3.1,0,4.6,1.5,4.6,4.6v4.5c0,3-1.5,4.6-4.6,4.6Z"/>
        <path class="cls-3" d="M42.4,113c-3.1,0-4.6-1.6-4.6-4.6v-4.5c0-3.1,1.5-4.6,4.6-4.6H94.6c3,0,4.6,1.5,4.6,4.6v4.5c0,3-1.6,4.6-4.6,4.6Z"/>
        <path class="cls-2" d="M59.5,13.8c-3.1,0-4.7-1.6-4.7-4.6V4.7c0-3.1,1.6-4.6,4.7-4.6h89.4c3.1,0,4.6,1.5,4.6,4.6V9.2c0,3-1.5,4.6-4.6,4.6Z"/>
        <path class="cls-2" d="M30.9,62.8c-3.1,0-4.6-1.5-4.6-4.6V53.7c0-3.1,1.5-4.6,4.6-4.6h89.4c3.1,0,4.7,1.5,4.7,4.6v4.5c0,3.1-1.6,4.6-4.7,4.6Z"/>
        <path class="cls-3" d="M233,99.2H185.6V62.9H210c3.4,0,5.3-1.8,5.3-5.3V54.4c0-3.5-1.9-5.3-5.3-5.3H185.6V13.8h44.7c3.5,0,5.2-2,5.2-5.3V5.3c0-3.5-1.7-5.3-5.2-5.3H175.2c-3.5,0-5.3,1.8-5.3,5.3V49.1H140.4c-3.1,0-4.7,1.5-4.7,4.6v4.5c0,3.1,1.6,4.6,4.7,4.6h29.5v44.9c0,3.5,1.8,5.3,5.3,5.3H233c3.5,0,5.3-1.8,5.3-5.3v-3.2C238.3,101,236.5,99.2,233,99.2Z"/>
        <path class="cls-3" d="M80.2,38.3c-3,0-4.6-1.5-4.6-4.6V29.2c0-3.1,1.6-4.6,4.6-4.6H92.8c3.1,0,4.7,1.5,4.7,4.6v4.5c0,3.1-1.6,4.6-4.7,4.6Z"/>
        <path class="cls-1" d="M71.1,87.9c-3.1,0-4.6-1.5-4.6-4.6V78.8c0-3.1,1.5-4.6,4.6-4.6h66.2c3,0,4.6,1.5,4.6,4.6v4.5c0,3.1-1.6,4.6-4.6,4.6Z"/>
      </g>
    </g>
  </g>
</svg>
